<?xml version="1.0" encoding="UTF-8" standalone="no"?> <svg id="Layer_1" data-name="Layer 1" xmlns="http://www.w3.org/2000/svg" viewBox="0 0 512 512"><title>Gift</title><path d="M266.667,469.333H392c30.88,0,56-23.924,56-53.333V245.333H266.667Z"/><path d="M64,416c0,29.409,25.12,53.333,56,53.333H245.333v-224H64Z"/><path d="M446.878,138.667h-126a144.116,144.116,0,0,0,27.434-22.154,43.619,43.619,0,0,0-4.457-64.574c-18.257-14.393-44.68-10.671-60.46,6.4A144,144,0,0,0,256,101.16a143.979,143.979,0,0,0-27.312-42.734c-7.91-8.573-18.406-14.641-30.031-15.608a43.184,43.184,0,0,0-33.422,11.626c-18.534,17.4-17.193,46.669.9,64.532a144.065,144.065,0,0,0,24.954,19.69H65.122c-12.4,0-22.456,11.143-22.456,24.889v35.556C42.667,212.857,52.721,224,65.122,224H446.878c12.4,0,22.456-11.143,22.456-24.889V163.555C469.333,149.81,459.279,138.667,446.878,138.667ZM300.984,70.786a22.263,22.263,0,0,1,30.672-1.252c9.914,8.723,9.2,24.274-.128,33.616a124.477,124.477,0,0,1-63.685,33.927A124.339,124.339,0,0,1,300.984,70.786Zm-121.319-.631A21.712,21.712,0,0,1,195.406,64a22.08,22.08,0,0,1,15.609,6.781,124.407,124.407,0,0,1,33.141,66.292,124.463,124.463,0,0,1-63.9-34.141C171.3,93.919,170.478,78.94,179.665,70.156Z"/></svg>